<?xml version="1.0" standalone="no"?>
<!DOCTYPE svg PUBLIC "-//W3C//DTD SVG 20010904//EN"
 "http://www.w3.org/TR/2001/REC-SVG-20010904/DTD/svg10.dtd">
<svg version="1.0" xmlns="http://www.w3.org/2000/svg"
 width="1484.000000pt" height="1484.000000pt" viewBox="0 0 1484.000000 1484.000000"
 preserveAspectRatio="xMidYMid meet">

<g transform="translate(0.000000,1484.000000) scale(0.100000,-0.100000)"
fill="#007bff" stroke="none">
<path d="M2415 14280 c-221 -19 -525 -105 -723 -204 -101 -51 -299 -177 -367
-234 -86 -72 -162 -140 -185 -166 -14 -16 -56 -63 -93 -105 -90 -101 -222
-300 -289 -436 -99 -201 -179 -492 -198 -720 -13 -164 -13 -9816 0 -9979 21
-248 100 -536 204 -744 51 -101 177 -299 234 -367 72 -86 140 -162 166 -185
16 -14 63 -56 105 -93 101 -90 300 -222 436 -289 189 -93 499 -181 692 -196
48 -4 2325 -7 5058 -7 3859 0 4987 3 5045 12 244 40 470 108 643 194 130 65
330 198 428 286 42 37 89 79 105 93 26 23 94 99 166 185 57 68 183 266 234
367 104 208 183 496 204 744 13 163 13 9815 0 9979 -19 228 -99 519 -198 720
-67 136 -199 335 -289 436 -37 42 -79 89 -93 105 -23 26 -99 94 -185 166 -68
57 -266 183 -367 234 -208 104 -505 186 -748 205 -140 10 -9856 9 -9985 -1z
m7524 -6054 c112 -71 109 -218 -4 -284 -136 -79 -321 73 -251 206 15 29 59 73
91 90 37 21 122 14 164 -12z m-509 -837 l0 -769 -160 0 -160 0 -1 93 0 92 -22
-29 c-53 -71 -93 -107 -148 -135 -74 -37 -148 -47 -235 -31 -96 16 -169 55
-240 126 -113 114 -158 245 -157 469 0 217 44 345 158 460 127 128 312 169
458 102 65 -29 167 -127 167 -159 0 -6 3 -8 8 -4 4 4 8 129 8 278 1 169 6 273
12 277 5 3 78 5 161 3 l151 -3 0 -770z m-3850 1 l0 -770 -162 2 -163 3 -3 755
c-1 415 0 761 3 768 3 9 46 12 165 12 l160 0 0 -770z m5078 527 l3 -137 109 0
110 0 0 -120 c0 -118 0 -120 -22 -121 -13 0 -61 -2 -108 -2 l-85 -2 0 -307 c0
-307 0 -308 23 -330 20 -20 32 -23 91 -22 l69 2 24 -112 c15 -67 21 -116 16
-123 -14 -18 -105 -34 -199 -34 -129 0 -212 33 -283 111 -70 78 -70 77 -76
465 l-5 350 -73 0 -72 0 -1 30 c-2 58 -2 150 0 183 l1 32 75 0 75 0 0 134 c0
99 3 135 13 139 6 2 80 3 162 3 l150 -1 3 -138z m-4196 -131 c206 -44 348
-183 402 -392 19 -77 31 -237 19 -258 -8 -15 -44 -17 -390 -16 -432 1 -405 7
-379 -85 20 -67 51 -112 105 -150 40 -28 48 -30 140 -30 90 0 101 2 140 28 23
16 51 44 63 62 l20 35 91 -6 c51 -3 101 -8 112 -9 11 -2 37 -4 58 -4 45 -1 45
-6 -3 -107 -75 -155 -261 -254 -479 -254 -282 1 -487 148 -557 400 -14 49 -18
98 -17 205 0 123 4 149 27 218 91 272 362 423 648 363z m1260 0 c102 -22 194
-71 264 -141 113 -112 158 -239 159 -450 l0 -70 -390 -5 -390 -5 3 -40 c4 -64
30 -121 74 -160 56 -51 95 -65 181 -65 92 0 149 27 191 89 l28 43 57 -6 c31
-3 97 -8 146 -12 50 -3 91 -7 93 -9 1 -1 -5 -24 -14 -51 -62 -182 -265 -304
-503 -304 -272 1 -459 126 -548 368 -35 93 -43 274 -18 388 68 311 355 496
667 430z m-3452 -374 l0 -368 28 -55 c35 -69 83 -99 162 -99 83 0 150 35 187
97 l28 48 3 373 3 372 165 0 164 0 -2 -577 -3 -578 -155 0 -155 0 0 103 c0 56
0 102 -1 102 0 0 -15 -22 -32 -49 -40 -61 -87 -103 -155 -137 -63 -33 -194
-44 -276 -24 -75 18 -164 81 -210 149 -75 112 -75 105 -79 584 l-3 427 165 0
166 0 0 -368z m5740 -212 l0 -580 -162 2 -163 3 -3 578 -2 577 165 0 165 0 0
-580z"/>
<path d="M8814 7526 c-65 -23 -104 -59 -136 -126 -27 -55 -32 -79 -36 -163 -7
-148 17 -236 82 -305 61 -65 164 -84 241 -44 103 53 151 164 142 336 -6 120
-17 161 -60 218 -57 75 -158 111 -233 84z"/>
<path d="M6244 7526 c-28 -13 -65 -41 -83 -62 -33 -40 -64 -123 -52 -137 4 -4
111 -6 237 -5 l229 3 -4 40 c-4 52 -22 85 -67 125 -75 66 -168 79 -260 36z"/>
<path d="M7535 7543 c-74 -19 -159 -114 -167 -189 l-3 -29 233 -3 232 -2 0 32
c-1 72 -60 152 -137 185 -31 13 -117 16 -158 6z"/>
</g>
</svg>
